Coordinates
version=1
nRows=31
nColumns=33
inDegrees=yes

Units are S.I. units (second, meters, Newtons, ...)
Angles are in degrees.

endheader
time	ground_thorax_rot_x	ground_thorax_rot_y	ground_thorax_rot_z	ground_thorax_tx	ground_thorax_ty	ground_thorax_tz	clav_prot_r	clav_elev_r	scapula_abduction_r	scapula_elevation_r	scapula_upward_rot_r	scapula_winging_r	shoulder_elv_r	plane_of_elev_r	axial_rot_r	elbow_flexion_r	pro_sup_r	wrist_flex_r	wrist_dev_r	clav_prot_l	clav_elev_l	scapula_abduction_l	scapula_elevation_l	scapula_upward_rot_l	scapula_winging_l	shoulder_elv_l	plane_of_elev_l	axial_rot_l	elbow_flexion_l	pro_sup_l	wrist_flex_l	wrist_dev_l	
4.1300	36.380106	19.059825	21.654084	-213.129613	822.903649	8.363395	12.980786	35.835471	35.706670	45.000000	-45.000000	-4763.995538	-1543.990614	143.536369	180.000000	2173.788329	59.413028	23.492080	7.540940	7.055489	-45.000000	-38.235708	45.000000	-38.577663	1898.705865	-1891.820299	138.211599	152.274187	730.563649	5.958855	6.778605	-20.328835	
4.1400	36.437693	18.767313	21.357169	-215.955624	823.615787	8.421756	12.902895	35.802098	35.606285	45.000000	-45.000000	-4764.064141	-1543.965284	143.571068	180.000000	2173.542943	57.726553	23.535235	7.572559	7.083330	-45.000000	-38.188879	45.000000	-38.693822	1898.829339	-1891.744167	138.224240	152.204667	730.552469	5.869835	6.659857	-20.320272	
4.1500	36.496387	18.486725	21.059043	-218.699309	824.309321	8.481772	12.834278	35.778701	35.504437	45.000000	-45.000000	-4764.119121	-1543.934582	143.606252	180.000000	2173.334680	56.265715	23.572825	7.613389	7.114753	-45.000000	-38.132627	45.000000	-38.835157	1898.939720	-1891.669705	138.234722	152.140309	730.542277	5.832406	6.523149	-20.309270	
4.1600	36.554738	18.215067	20.758883	-221.377152	824.982511	8.544318	12.766452	35.755797	35.394509	45.000000	-45.000000	-4764.158021	-1543.896529	143.644252	180.000000	2173.164880	55.083314	23.604409	7.639548	7.148262	-45.000000	-38.070034	45.000000	-38.986084	1899.044790	-1891.598694	138.238594	152.082856	730.534629	5.856101	6.377836	-20.297757	
4.1700	36.611406	17.952171	20.459971	-223.999651	825.633018	8.610146	12.701287	35.731858	35.277632	45.000000	-45.000000	-4764.184833	-1543.854032	143.685213	180.000000	2173.030680	54.192340	23.630704	7.638341	7.181458	-45.000000	-38.003776	45.000000	-39.140861	1899.147240	-1891.529210	138.238386	152.026534	730.530183	5.950443	6.222967	-20.286228	
4.1800	36.667029	17.696278	20.162704	-226.571892	826.257891	8.679710	12.633990	35.710131	35.157826	45.000000	-45.000000	-4764.204436	-1543.810766	143.728885	180.000000	2172.929158	53.591157	23.652660	7.602742	7.210697	-45.000000	-37.935591	45.000000	-39.294176	1899.246565	-1891.463364	138.238242	151.977981	730.527624	6.124416	6.055764	-20.274555	
4.1900	36.720525	17.449229	19.869307	-229.097434	826.853558	8.753017	12.564343	35.689427	35.037502	45.000000	-45.000000	-4764.220016	-1543.772830	143.775983	180.000000	2172.854764	53.259127	23.666184	7.531470	7.231369	-45.000000	-37.870562	45.000000	-39.439017	1899.342583	-1891.402006	138.241836	151.934303	730.527900	6.384161	5.879618	-20.263409	
4.2000	36.772838	17.209235	19.580688	-231.578954	827.416061	8.829611	12.492301	35.670312	34.914517	45.000000	-45.000000	-4764.233752	-1543.739214	143.823253	180.000000	2172.803435	53.167834	23.672647	7.427874	7.245396	-45.000000	-37.804750	45.000000	-39.575234	1899.436589	-1891.346814	138.247353	151.895443	730.532520	6.733982	5.691637	-20.252228	
4.2100	36.823199	16.975572	19.298300	-234.019122	827.941317	8.908522	12.417360	35.652492	34.791271	45.000000	-45.000000	-4764.246345	-1543.715290	143.871328	180.000000	2172.769101	53.280319	23.669532	7.294562	7.247610	-45.000000	-37.743569	45.000000	-39.690616	1899.528401	-1891.300879	138.259985	151.854597	730.541100	7.176474	5.496297	-20.241026	
4.2200	36.873783	16.743909	19.023264	-236.418463	828.425720	8.988493	12.331197	35.641511	34.672638	45.000000	-45.000000	-4764.259625	-1543.699004	143.920687	180.000000	2172.749816	53.557440	23.659566	7.135715	7.235906	-45.000000	-37.686168	45.000000	-39.776731	1899.615815	-1891.268408	138.284858	151.819740	730.551472	7.708950	5.289887	-20.228238	
4.2300	36.925197	16.515417	18.753852	-238.775724	828.866568	9.068184	12.236871	35.636094	34.556908	45.000000	-45.000000	-4764.271899	-1543.689014	143.973152	180.000000	2172.739624	53.955620	23.643615	6.960714	7.213044	-45.000000	-37.633371	45.000000	-39.825015	1899.700222	-1891.247956	138.319807	151.778119	730.564802	8.328293	5.074801	-20.213496	
4.2400	36.978038	16.290817	18.494717	-241.087938	829.262433	9.146470	12.139261	35.634662	34.440942	45.000000	-45.000000	-4764.280572	-1543.678903	144.025788	180.000000	2172.734997	54.447266	23.627379	6.779392	7.190238	-45.000000	-37.577719	45.000000	-39.864527	1899.783034	-1891.235245	138.357134	151.736977	730.580584	9.038141	4.844904	-20.194063	
4.2500	37.032514	16.075982	18.248307	-243.350930	829.613046	9.222432	12.046127	35.632577	34.321466	45.000000	-45.000000	-4764.284004	-1543.667156	144.079138	180.000000	2172.727891	55.013898	23.612779	6.599436	7.173616	-45.000000	-37.514816	45.000000	-39.928613	1899.861894	-1891.225665	138.385876	151.708635	730.598019	9.844280	4.602439	-20.168776	
4.2600	37.084844	15.883456	18.035166	-245.560048	829.919160	9.295371	11.969094	35.623849	34.190818	45.000000	-45.000000	-4764.282041	-1543.649757	144.131217	180.000000	2172.717287	55.664814	23.609768	6.427653	7.193667	-45.000000	-37.425985	45.000000	-40.142930	1899.929043	-1891.197499	138.373974	151.782592	730.618930	10.781782	4.333305	-20.132720	
4.2700	37.130990	15.714346	17.851261	-247.710790	830.182005	9.364468	11.910461	35.606666	34.050612	45.000000	-45.000000	-4764.275573	-1543.639899	144.187332	180.000000	2172.706032	56.385932	23.610779	6.260507	7.232880	-45.000000	-37.320602	45.000000	-40.462366	1899.989808	-1891.151990	138.331492	151.935151	730.650563	11.864079	4.054335	-20.091778	
4.2800	37.171957	15.561287	17.687801	-249.799033	830.402871	9.428544	11.862696	35.583613	33.902587	45.000000	-45.000000	-4764.264664	-1543.638715	144.242654	180.000000	2172.694916	57.164565	23.615539	6.097065	7.285454	-45.000000	-37.205106	45.000000	-40.856426	1900.042480	-1891.093611	138.266655	152.151323	730.694765	13.091838	3.763475	-20.044203	
4.2900	37.209102	15.424801	17.542577	-251.821165	830.582633	9.485781	11.825058	35.556505	33.748635	45.000000	-45.000000	-4764.250385	-1543.645906	144.299612	180.000000	2172.682469	57.987298	23.623969	5.937595	7.344445	-45.000000	-37.082328	45.000000	-41.296171	1900.090163	-1891.026451	138.185385	152.397866	730.751303	14.468729	3.459490	-19.986087	
4.3000	37.241722	15.296589	17.409968	-253.774057	830.721925	9.533928	11.787691	35.530627	33.597071	45.000000	-45.000000	-4764.233949	-1543.666765	144.359979	180.000000	2172.672886	58.836303	23.631014	5.777924	7.396438	-45.000000	-36.964314	45.000000	-41.724684	1900.134840	-1890.959252	138.107326	152.655443	730.820830	15.976837	3.150751	-19.920303	
4.3100	37.271896	15.170986	17.278397	-255.654954	830.821221	9.570544	11.746117	35.508689	33.451170	45.000000	-45.000000	-4764.214597	-1543.702424	144.425670	180.000000	2172.665588	59.680309	23.632500	5.619001	7.424280	-45.000000	-36.860798	45.000000	-42.054066	1900.185693	-1890.906099	138.054950	152.846110	730.903428	17.579376	2.846255	-19.846671	
4.3200	37.304200	15.033641	17.133577	-257.461218	830.881190	9.593444	11.693337	35.492352	33.314003	45.000000	-45.000000	-4764.188469	-1543.745658	144.488854	180.000000	2172.655817	60.492043	23.628357	5.465332	7.422622	-45.000000	-36.779704	45.000000	-42.245855	1900.240805	-1890.881555	138.040619	152.937955	730.991053	19.219018	2.554186	-19.765538	
4.3300	37.337253	14.911754	17.007246	-259.190591	830.902712	9.600982	11.651778	35.473520	33.170543	45.000000	-45.000000	-4764.158725	-1543.783548	144.549337	180.000000	2172.636608	61.298654	23.636552	5.325843	7.441361	-45.000000	-36.685859	45.000000	-42.501245	1900.291149	-1890.851463	138.006362	153.044968	731.085219	20.937032	2.246060	-19.660150	
4.3400	37.365537	14.799422	16.900308	-260.841072	830.886962	9.592350	11.619436	35.452000	33.024700	45.000000	-45.000000	-4764.123396	-1543.824350	144.608984	180.000000	2172.614462	62.088578	23.648307	5.197713	7.466546	-45.000000	-36.586509	45.000000	-42.787690	1900.339989	-1890.817378	137.963133	153.168803	731.185038	22.717550	1.945575	-19.544710	
4.3500	37.391320	14.702304	16.810064	-262.411326	830.835226	9.567666	11.587547	35.430494	32.878003	45.000000	-45.000000	-4764.087217	-1543.871324	144.672466	180.000000	2172.588291	62.852931	23.663882	5.079243	7.494369	-45.000000	-36.482477	45.000000	-43.097501	1900.382295	-1890.781312	137.914368	153.312682	731.293769	24.554225	1.649299	-19.416073	
4.3600	37.417636	14.597915	16.711057	-263.900405	830.748782	9.527962	11.542876	35.413704	32.737749	45.000000	-45.000000	-4764.046032	-1543.926657	144.734642	180.000000	2172.559490	63.551323	23.676362	4.970577	7.494803	-45.000000	-36.395401	45.000000	-43.298965	1900.421982	-1890.769032	137.895881	153.384214	731.402560	26.375511	1.378849	-19.285059	
4.3700	37.441960	14.519140	16.643924	-265.307946	830.628834	9.475113	11.509251	35.394754	32.591635	45.000000	-45.000000	-4764.004958	-1543.979109	144.797763	180.000000	2172.515698	64.212438	23.703853	4.880337	7.524319	-45.000000	-36.287873	45.000000	-43.612038	1900.453237	-1890.740645	137.848450	153.498386	731.516747	28.234275	1.093907	-19.128725	
4.3800	37.462795	14.442587	16.585141	-266.633415	830.476628	9.411711	11.477841	35.376741	32.449669	45.000000	-45.000000	-4763.959365	-1544.038368	144.860031	180.000000	2172.467181	64.800870	23.729254	4.802735	7.541593	-45.000000	-36.185504	45.000000	-43.887531	1900.486990	-1890.720857	137.811649	153.574840	731.632073	30.085896	0.835033	-18.971523	
4.3900	37.483324	14.373055	16.534648	-267.876089	830.293600	9.340869	11.444263	35.360589	32.312846	45.000000	-45.000000	-4763.913121	-1544.100697	144.921404	180.000000	2172.407302	65.315473	23.755216	4.738767	7.557821	-45.000000	-36.084291	45.000000	-44.159837	1900.516607	-1890.708120	137.778473	153.646394	731.751672	31.920577	0.590799	-18.807996	
4.4000	37.507809	14.290884	16.464564	-269.034580	830.081572	9.265931	11.400413	35.346432	32.185075	45.000000	-45.000000	-4763.862393	-1544.166332	144.977694	180.000000	2172.345554	65.741559	23.778437	4.686576	7.553720	-45.000000	-36.006688	45.000000	-44.338027	1900.539850	-1890.723580	137.774001	153.672287	731.870065	33.683426	0.380655	-18.654847	
4.4100	37.532918	14.214724	16.401752	-270.106852	829.842921	9.190204	11.359300	35.331099	32.060224	45.000000	-45.000000	-4763.810947	-1544.228687	145.029793	180.000000	2172.277023	66.102895	23.808731	4.648852	7.560058	-45.000000	-35.928669	45.000000	-44.545894	1900.554308	-1890.739969	137.765646	153.724365	731.989283	35.388305	0.181222	-18.498563	
4.4200	37.562241	14.125552	16.318461	-271.089953	829.580797	9.116708	11.310729	35.316852	31.940827	45.000000	-45.000000	-4763.756523	-1544.287077	145.072634	180.000000	2172.211666	66.385342	23.836286	4.620418	7.548822	-45.000000	-35.870189	45.000000	-44.661331	1900.562821	-1890.777666	137.780236	153.738968	732.103387	36.979197	0.017095	-18.358704	
4.4300	37.591559	14.037154	16.233558	-271.980647	829.299113	9.048003	11.258821	35.304953	31.828795	45.000000	-45.000000	-4763.702425	-1544.344033	145.112049	180.000000	2172.139823	66.591476	23.861270	4.603445	7.529222	-45.000000	-35.820081	45.000000	-44.709159	1900.569312	-1890.827285	137.813042	153.711287	732.208253	38.428404	-0.122882	-18.225802	
